<?xml version="1.0" standalone="no"?>
<!DOCTYPE svg PUBLIC "-//W3C//DTD SVG 20010904//EN"
 "http://www.w3.org/TR/2001/REC-SVG-20010904/DTD/svg10.dtd">
<svg version="1.0" xmlns="http://www.w3.org/2000/svg"
 width="700.000000pt" height="700.000000pt" viewBox="0 0 700.000000 700.000000"
 preserveAspectRatio="xMidYMid meet">
<metadata>
Created by potrace 1.11, written by Peter Selinger 2001-2013
</metadata>
<g transform="translate(0.000000,700.000000) scale(0.100000,-0.100000)"
fill="#000000" stroke="none">
<path d="M3160 6345 c-25 -39 -48 -71 -52 -73 -5 -2 -8 -7 -8 -11 0 -8 -71
-116 -486 -741 -93 -140 -171 -259 -173 -264 -2 -6 -8 -15 -13 -21 -5 -5 -111
-163 -234 -350 -124 -187 -293 -443 -377 -570 -84 -126 -153 -235 -155 -242
-2 -7 -7 -13 -11 -13 -3 0 -15 -15 -26 -32 -15 -27 -527 -803 -565 -858 -99
-142 -470 -714 -468 -720 2 -5 127 -96 278 -204 151 -107 291 -206 310 -220
19 -14 151 -108 292 -208 142 -101 265 -189 275 -196 10 -7 221 -156 468 -332
248 -175 455 -323 460 -327 12 -10 238 -171 271 -193 13 -8 75 -52 139 -98 64
-46 119 -82 121 -79 2 2 3 1313 2 2912 l-3 2909 -45 -69z"/>
<path d="M3790 3502 c0 -1602 3 -2912 6 -2912 3 0 161 111 352 247 356 253
381 271 492 349 36 25 76 54 90 64 25 19 580 414 695 495 410 289 981 698 983
705 2 6 -315 496 -408 630 -13 19 -91 136 -105 157 -5 9 -134 203 -285 432
-152 229 -287 434 -300 456 -13 22 -28 45 -33 50 -5 6 -108 161 -230 345 -122
185 -323 488 -447 675 -124 186 -227 343 -229 349 -2 5 -8 15 -13 21 -5 5
-132 196 -282 422 -150 227 -275 416 -279 419 -4 4 -7 -1303 -7 -2904z"/>
</g>
</svg>
