<?xml version="1.0" standalone="no"?>
<!DOCTYPE svg PUBLIC "-//W3C//DTD SVG 20010904//EN"
 "http://www.w3.org/TR/2001/REC-SVG-20010904/DTD/svg10.dtd">
<svg version="1.0" xmlns="http://www.w3.org/2000/svg"
 width="700.000000pt" height="700.000000pt" viewBox="0 0 700.000000 700.000000"
 preserveAspectRatio="xMidYMid meet">
<metadata>
Created by potrace 1.14, written by Peter Selinger 2001-2017
</metadata>
<g transform="translate(0.000000,700.000000) scale(0.100000,-0.100000)"
fill="#000000" stroke="none">
<path d="M3141 6900 c-35 -52 -132 -196 -216 -320 -83 -124 -227 -337 -320
-475 -93 -137 -228 -338 -300 -445 -72 -107 -206 -305 -297 -440 -155 -232
-437 -650 -700 -1040 -65 -96 -123 -182 -128 -190 -15 -21 -391 -578 -604
-895 -96 -143 -265 -394 -375 -557 l-200 -298 62 -43 c88 -62 388 -272 574
-401 87 -60 183 -128 214 -150 31 -23 134 -95 229 -161 244 -170 247 -172 330
-229 41 -28 80 -55 85 -59 6 -5 136 -96 290 -203 154 -107 316 -221 361 -252
44 -31 171 -120 282 -197 186 -129 260 -180 487 -340 44 -31 127 -90 185 -130
l105 -74 3 1750 c1 963 1 2537 0 3497 l-3 1747 -64 -95z"/>
<path d="M3790 3503 c0 -2417 3 -3493 10 -3493 6 0 16 5 23 10 12 10 197 140
332 233 39 27 81 57 95 67 14 10 250 175 525 367 275 192 514 358 530 370 66
46 310 216 388 270 45 31 92 63 103 72 12 9 30 22 40 28 11 7 62 43 114 80 52
36 129 90 170 118 60 41 321 224 783 547 11 7 36 26 58 41 l39 29 -75 109
c-41 60 -75 114 -75 118 0 5 -4 11 -8 13 -5 2 -67 91 -139 198 -136 204 -267
397 -280 416 -4 5 -12 18 -18 27 -9 15 -122 183 -490 727 -61 91 -201 298
-310 460 -109 162 -244 363 -300 445 -56 83 -209 310 -340 505 -447 663 -436
647 -505 748 -28 40 -50 75 -50 78 0 2 -5 10 -11 17 -10 11 -179 261 -459 678
-63 94 -123 181 -132 193 -16 20 -17 -169 -18 -3471z"/>
</g>
</svg>
